<?xml version="1.0" encoding="UTF-8"?><svg id="Layer_1" xmlns="http://www.w3.org/2000/svg" viewBox="0 0 250 189.57"><defs><style>.cls-1{fill:#fff;}</style></defs><path class="cls-1" d="M131.12,9.02c.7-5.22,5.16-9.02,10.29-9.02h0c.46,0,.93,.03,1.39,.09h0c5.69,.76,9.69,5.99,8.93,11.68h0c-.76,5.69-6,9.69-11.68,8.93h0c-5.69-.76-9.69-5.99-8.94-11.68h0Z"/><path class="cls-1" d="M105.69,.45c.53-.08,1.06-.12,1.59-.12h0c5.04,0,9.47,3.68,10.26,8.82h0c.87,5.68-3.02,10.98-8.7,11.85h0c-5.67,.87-10.98-3.02-11.85-8.7h0c-.87-5.67,3.03-10.98,8.7-11.85h0Z"/><path class="cls-1" d="M70.14,11.32c1.43-.67,2.94-1,4.43-1h0c3.9,0,7.63,2.2,9.4,5.96h0c2.45,5.19,.24,11.39-4.96,13.84h0c-5.19,2.45-11.39,.24-13.84-4.96h0c-2.45-5.19-.23-11.39,4.96-13.84h0Z"/><path class="cls-1" d="M195.27,31.3c2.05-2.4,4.96-3.63,7.89-3.63h0c2.4,0,4.8,.83,6.77,2.51h0c4.34,3.74,4.86,10.3,1.11,14.65h0c-3.74,4.36-10.3,4.86-14.66,1.12h0c-4.36-3.74-4.86-10.3-1.12-14.66h0Z"/><path class="cls-1" d="M39.16,31.84c1.98-1.76,4.45-2.64,6.92-2.64h0c2.86,0,5.71,1.17,7.76,3.48h0c3.82,4.28,3.45,10.86-.83,14.68h0c-4.28,3.82-10.85,3.45-14.67-.84h0c-3.82-4.28-3.45-10.85,.83-14.68h0Z"/><path class="cls-1" d="M220,55.07c1.75-1.13,3.71-1.68,5.65-1.68h0c3.41,0,6.74,1.67,8.73,4.74h0c3.11,4.82,1.75,11.25-3.07,14.38h0c-4.82,3.12-11.25,1.75-14.38-3.06h0c-3.11-4.82-1.75-11.25,3.07-14.38h0Z"/><path class="cls-1" d="M15.25,60.26c1.97-3.17,5.37-4.91,8.84-4.91h0c1.87,0,3.77,.51,5.48,1.57h0c4.87,3.03,6.37,9.44,3.34,14.31h0c-3.03,4.88-9.44,6.37-14.31,3.34h0c-4.88-3.03-6.37-9.44-3.34-14.32h0Z"/><path class="cls-1" d="M.37,94.32c1.26-4.62,5.45-7.65,10.02-7.65h0c.91,0,1.83,.12,2.75,.37h0c5.54,1.52,8.79,7.24,7.28,12.78h0c-1.52,5.53-7.23,8.79-12.77,7.27h0c-5.54-1.52-8.8-7.23-7.28-12.77H.37Z"/><path class="cls-1" d="M129.49,30.75c.5-3.7,3.67-6.39,7.29-6.39h0c.33,0,.65,.02,.99,.06h0c4.03,.54,6.86,4.25,6.32,8.28h0c-.54,4.03-4.24,6.86-8.27,6.33h0c-4.04-.54-6.88-4.25-6.34-8.28h0Z"/><path class="cls-1" d="M111.45,24.67c.38-.06,.75-.08,1.12-.08h0c3.58,0,6.71,2.61,7.27,6.25h0c.62,4.02-2.14,7.78-6.17,8.4h0c-4.02,.62-7.78-2.15-8.4-6.17h0c-.62-4.02,2.15-7.78,6.17-8.4h0Z"/><path class="cls-1" d="M153.37,35.33c1.22-2.73,3.92-4.35,6.73-4.35h0c1.01,0,2.03,.21,3.01,.65h0c3.71,1.67,5.37,6.03,3.7,9.74h0c-1.66,3.71-6.02,5.37-9.74,3.7h0c-3.71-1.66-5.37-6.02-3.7-9.74h0Z"/><path class="cls-1" d="M86.26,32.37c1.01-.47,2.09-.7,3.14-.7h0c2.76,0,5.41,1.56,6.67,4.22h0c1.74,3.68,.16,8.07-3.52,9.81h0c-3.68,1.74-8.07,.17-9.81-3.51h0c-1.74-3.68-.16-8.07,3.52-9.81h0Z"/><path class="cls-1" d="M174.95,46.54c1.45-1.7,3.51-2.57,5.58-2.57h0c1.7,0,3.41,.58,4.8,1.78h0c3.09,2.65,3.44,7.3,.79,10.39h0c-2.65,3.09-7.3,3.44-10.39,.79h0c-3.09-2.65-3.44-7.3-.79-10.39h0Z"/><path class="cls-1" d="M64.3,46.92c1.41-1.25,3.16-1.87,4.9-1.87h0c2.03,0,4.04,.83,5.5,2.46h0c2.71,3.04,2.44,7.69-.59,10.4h0c-3.04,2.71-7.69,2.44-10.4-.59h0c-2.71-3.04-2.44-7.69,.59-10.41h0Z"/><path class="cls-1" d="M192.48,63.39c1.24-.8,2.63-1.19,4.01-1.19h0c2.41,0,4.77,1.18,6.18,3.36h0c2.21,3.41,1.24,7.98-2.17,10.19h0c-3.41,2.22-7.98,1.24-10.19-2.17h0c-2.21-3.41-1.24-7.98,2.17-10.19h0Z"/><path class="cls-1" d="M47.35,67.06c1.4-2.24,3.8-3.48,6.27-3.48h0c1.33,0,2.67,.36,3.88,1.11h0c3.46,2.15,4.52,6.7,2.37,10.15h0c-2.15,3.45-6.69,4.51-10.15,2.36h0c-3.46-2.15-4.51-6.69-2.37-10.15h0Z"/><path class="cls-1" d="M36.81,91.21c.89-3.27,3.87-5.43,7.1-5.43h0c.65,0,1.3,.09,1.95,.26h0c3.92,1.08,6.24,5.13,5.16,9.06h0c-1.07,3.92-5.13,6.23-9.05,5.15h0c-3.92-1.07-6.23-5.12-5.16-9.04h0Z"/><path class="cls-1" d="M128.15,48.47c.34-2.47,2.44-4.26,4.87-4.26h0c.22,0,.44,.01,.66,.05h0c2.69,.36,4.58,2.83,4.21,5.52h0c-.35,2.69-2.83,4.58-5.52,4.22h0c-2.69-.36-4.57-2.83-4.22-5.52h0Z"/><path class="cls-1" d="M116.13,44.42c.25-.04,.5-.05,.75-.05h0c2.39,0,4.48,1.74,4.85,4.17h0c.41,2.68-1.43,5.19-4.11,5.6h0c-2.68,.41-5.19-1.43-5.6-4.11h0c-.41-2.68,1.43-5.19,4.11-5.6h0Z"/><path class="cls-1" d="M144.08,51.53c.82-1.82,2.61-2.9,4.49-2.9h0c.67,0,1.36,.14,2.01,.44h0s0,0,0,0h0c2.48,1.11,3.58,4.01,2.47,6.49h0c-1.12,2.47-4.02,3.58-6.5,2.47h0c-2.48-1.11-3.58-4.02-2.47-6.49h0Z"/><path class="cls-1" d="M99.33,49.56c.68-.32,1.39-.47,2.09-.47h0c1.84,0,3.6,1.04,4.44,2.82h0c1.16,2.45,.11,5.38-2.34,6.54h0c-2.45,1.16-5.38,.11-6.54-2.34h0c-1.16-2.46-.11-5.38,2.35-6.54h0Z"/><path class="cls-1" d="M84.7,59.25c.94-.83,2.1-1.25,3.27-1.25h0c1.35,0,2.7,.56,3.67,1.64h0c1.8,2.02,1.63,5.13-.4,6.93h0c-2.02,1.81-5.13,1.63-6.93-.39h0c-1.81-2.02-1.63-5.13,.39-6.94h0Z"/><path class="cls-1" d="M170.15,70.24c.82-.53,1.75-.79,2.67-.79h0c1.61,0,3.18,.79,4.13,2.24h0c1.47,2.28,.83,5.32-1.45,6.8h0c-2.27,1.48-5.32,.82-6.8-1.45h0c-1.47-2.28-.82-5.32,1.45-6.79h0Z"/><path class="cls-1" d="M178.2,84.32c.46-.14,.93-.2,1.4-.2h0c2.11,0,4.07,1.38,4.7,3.53h0c.77,2.6-.72,5.33-3.33,6.1h0c-2.6,.77-5.33-.72-6.1-3.32h0c-.77-2.6,.72-5.33,3.33-6.1h0Z"/><path class="cls-1" d="M66.36,88.78c.6-2.18,2.58-3.62,4.74-3.62h0c.43,0,.87,.06,1.3,.18h0c2.62,.72,4.16,3.42,3.44,6.03h0c-.71,2.62-3.42,4.16-6.03,3.44h0c-2.62-.72-4.16-3.42-3.44-6.03h0Z"/><path class="cls-1" d="M127.18,61.35c.21-1.57,1.56-2.71,3.1-2.71h0c.13,0,.27,0,.42,.03h0c1.71,.23,2.9,1.8,2.69,3.51h0c-.23,1.71-1.81,2.91-3.52,2.68h0c-1.71-.23-2.91-1.8-2.69-3.51h0Z"/><path class="cls-1" d="M119.54,58.77c.16-.02,.32-.04,.48-.04h0c1.51,0,2.84,1.11,3.08,2.65h0c.26,1.7-.91,3.3-2.61,3.56h0c-1.71,.26-3.3-.91-3.56-2.62h0c-.26-1.7,.91-3.3,2.61-3.56h0Z"/><path class="cls-1" d="M137.31,63.29c.52-1.16,1.65-1.84,2.85-1.84h0c.43,0,.87,.09,1.29,.28h0c1.57,.7,2.27,2.55,1.57,4.13h0c-.71,1.57-2.56,2.28-4.13,1.57h0c-1.57-.71-2.27-2.55-1.57-4.13h0Z"/><path class="cls-1" d="M99.54,68.21c.59-.53,1.34-.8,2.08-.8h0c.86,0,1.72,.35,2.33,1.05h0c1.15,1.29,1.04,3.26-.25,4.41h0c-1.28,1.15-3.26,1.03-4.41-.25h0c-1.14-1.29-1.04-3.26,.25-4.41h0Z"/><path class="cls-1" d="M153.9,75.19c.52-.34,1.11-.5,1.69-.5h0c1.03,0,2.03,.5,2.62,1.42h0c.94,1.45,.53,3.39-.92,4.32h0c-1.45,.94-3.38,.53-4.32-.92h0c-.94-1.45-.52-3.38,.92-4.32h0Z"/><path class="cls-1" d="M92.36,76.74c.59-.95,1.61-1.47,2.66-1.48h0c.56,0,1.13,.16,1.65,.47h0c1.47,.92,1.91,2.84,1,4.3h0c-.91,1.47-2.84,1.92-4.3,1.01h0c-1.46-.92-1.91-2.84-1-4.31h0Z"/><path class="cls-1" d="M159.01,84.15c.3-.09,.59-.13,.89-.13h0c1.35,0,2.6,.88,2.99,2.24h0c.49,1.66-.46,3.39-2.1,3.88h0c-1.66,.49-3.39-.46-3.88-2.11h0c-.49-1.66,.46-3.39,2.11-3.88h0Z"/><path class="cls-1" d="M87.89,86.98c.38-1.39,1.64-2.3,3.01-2.3h0c.27,0,.55,.04,.82,.11h0c1.67,.46,2.65,2.18,2.19,3.84h0c-.46,1.66-2.18,2.64-3.84,2.19h0c-1.67-.46-2.64-2.18-2.19-3.84h0Z"/><path class="cls-1" d="M204.54,84.51c.69-.21,1.39-.31,2.08-.31h0c3.18,0,6.12,2.08,7.06,5.29h0c1.16,3.9-1.08,8-4.98,9.15h0c-3.91,1.14-8-1.08-9.16-4.98h0c-1.14-3.9,1.08-8,4.99-9.15h0Z"/><rect class="cls-1" x="232.02" y="120.84" width="17.18" height="68.73"/><path class="cls-1" d="M24.1,155.2c0-4.74,3.85-8.59,8.6-8.59h51.98c1.21,0,2.23-.47,3.04-1.26h0c.79-.8,1.25-1.83,1.25-3.04h0c0-1.22-.47-2.23-1.25-3.04h0c-.81-.79-1.83-1.25-3.04-1.26H34.41c-4.75,0-8.98,1.91-12.11,5.02h0c-3.12,3.14-5.02,7.39-5.03,12.16h0c.01,4.78,1.91,9.02,5.03,12.16h0c3.12,3.13,7.35,5.02,12.11,5.02H106.2v17.19H34.39c-9.45,0-18.08-3.87-24.26-10.08h0C3.94,173.3,.08,164.66,.09,155.2H.09c0-9.46,3.85-18.1,10.04-24.29h0c6.18-6.21,14.82-10.07,24.27-10.07h50.27c5.9,0,11.33,2.41,15.19,6.28h0c3.88,3.86,6.3,9.29,6.29,15.19h0c0,5.91-2.42,11.33-6.29,15.2h0c-3.85,3.86-9.27,6.28-15.17,6.28H32.69c-4.75,0-8.6-3.84-8.6-8.59Z"/><path class="cls-1" d="M139.47,155.2c0,4.75,3.84,8.59,8.59,8.59h51.97c1.21,0,2.24,.47,3.04,1.26h0c.79,.81,1.25,1.83,1.25,3.04h0c0,1.21-.47,2.23-1.25,3.03h0c-.8,.79-1.83,1.25-3.04,1.26h-50.26c-4.76,0-8.98-1.89-12.11-5.02h0c-3.11-3.14-5.02-7.37-5.02-12.16h0c0-4.77,1.91-9.02,5.02-12.16h0c3.13-3.11,7.35-5.02,12.11-5.02h71.79v-17.18h-71.8c-9.45,0-18.08,3.86-24.25,10.07h0c-6.2,6.19-10.05,14.83-10.05,24.29h0c0,9.46,3.84,18.1,10.05,24.29h0c6.18,6.21,14.81,10.08,24.27,10.08h50.26c5.91,0,11.34-2.42,15.2-6.3h0c3.86-3.86,6.29-9.28,6.28-15.19h0c0-5.9-2.42-11.32-6.28-15.19h0c-3.86-3.87-9.28-6.29-15.18-6.29h-51.99c-4.75,0-8.59,3.85-8.59,8.59h0Z"/><path class="cls-1" d="M250,93.22c0,5.74-4.66,10.4-10.41,10.4s-10.39-4.66-10.39-10.4,4.66-10.4,10.39-10.4,10.41,4.66,10.41,10.4Z"/><path class="cls-1" d="M184.69,19.75c0,5.74-4.65,10.4-10.4,10.4s-10.39-4.66-10.39-10.4,4.65-10.4,10.39-10.4,10.4,4.66,10.4,10.4Z"/><path class="cls-1" d="M167.09,62.2c0,2.71-2.2,4.91-4.91,4.91s-4.9-2.2-4.9-4.91,2.19-4.91,4.9-4.91,4.91,2.2,4.91,4.91Z"/><path class="cls-1" d="M82.47,75.28c0,2.71-2.2,4.91-4.91,4.91s-4.9-2.2-4.9-4.91,2.19-4.9,4.9-4.9,4.91,2.19,4.91,4.9Z"/><circle class="cls-1" cx="148.83" cy="70.08" r="3.13"/><path class="cls-1" d="M113.31,64.86c0,1.73-1.4,3.13-3.13,3.13s-3.12-1.4-3.12-3.13,1.4-3.12,3.12-3.12,3.13,1.4,3.13,3.12Z"/></svg>